<svg id="Layer_1" data-name="Layer 1" xmlns="http://www.w3.org/2000/svg" xmlns:xlink="http://www.w3.org/1999/xlink" width="809.02mm" height="507.51mm" viewBox="0 0 2293.3 1438.6">
  <defs>
    <style>
      .cls-1, .cls-10, .cls-12, .cls-16, .cls-18, .cls-20, .cls-23, .cls-24, .cls-26, .cls-27, .cls-29, .cls-30, .cls-34, .cls-39, .cls-42, .cls-45, .cls-46, .cls-47, .cls-5 {
        fill: none;
      }

      .cls-2 {
        clip-path: url(#clip-path);
      }

      .cls-3 {
        clip-path: url(#clip-path-2);
      }

      .cls-4 {
        fill: #ebf3f5;
      }

      .cls-16, .cls-18, .cls-20, .cls-23, .cls-24, .cls-26, .cls-29, .cls-30, .cls-34, .cls-39, .cls-42, .cls-45, .cls-46, .cls-47, .cls-5 {
        stroke: #000;
      }

      .cls-10, .cls-16, .cls-18, .cls-23, .cls-24, .cls-26, .cls-27, .cls-29, .cls-30, .cls-34, .cls-39, .cls-42, .cls-45, .cls-46, .cls-47, .cls-5 {
        stroke-linecap: round;
        stroke-linejoin: round;
      }

      .cls-5 {
        stroke-width: 1.69px;
      }

      .cls-6 {
        fill: #368097;
      }

      .cls-7 {
        opacity: 0.1;
      }

      .cls-8 {
        clip-path: url(#clip-path-3);
      }

      .cls-9 {
        fill: #6bd49c;
      }

      .cls-10, .cls-12 {
        stroke: #5db888;
      }

      .cls-10, .cls-12, .cls-39 {
        stroke-width: 2.04px;
      }

      .cls-11 {
        fill: #73e4a8;
      }

      .cls-12, .cls-20 {
        stroke-miterlimit: 10;
      }

      .cls-13 {
        fill: #1a2e35;
      }

      .cls-14 {
        fill: #375a64;
      }

      .cls-15 {
        fill: #a1d9f7;
      }

      .cls-16 {
        stroke-width: 1.7px;
      }

      .cls-17 {
        fill: #fff;
      }

      .cls-18 {
        stroke-width: 2.28px;
      }

      .cls-19 {
        fill: #65aed6;
      }

      .cls-20, .cls-23 {
        stroke-width: 2.02px;
      }

      .cls-21 {
        fill: #c47043;
      }

      .cls-22 {
        fill: #d1976a;
      }

      .cls-24 {
        stroke-width: 1.22px;
      }

      .cls-25 {
        fill: #613117;
      }

      .cls-26 {
        stroke-width: 4.87px;
      }

      .cls-27 {
        stroke: #fff;
        stroke-width: 4.04px;
      }

      .cls-28 {
        fill: #454a78;
      }

      .cls-29 {
        stroke-width: 2.3px;
      }

      .cls-30 {
        stroke-width: 1.72px;
      }

      .cls-31 {
        fill: #36211b;
      }

      .cls-32 {
        fill: #1f130f;
      }

      .cls-33 {
        fill: #8b599a;
      }

      .cls-34 {
        stroke-width: 2.79px;
      }

      .cls-35 {
        fill: #292c47;
      }

      .cls-36 {
        fill: #f19e6f;
      }

      .cls-37 {
        fill: #d04e50;
      }

      .cls-38 {
        fill: #296173;
      }

      .cls-40 {
        fill: #516066;
      }

      .cls-41 {
        fill: #d8e7eb;
      }

      .cls-42 {
        stroke-width: 1.97px;
      }

      .cls-43 {
        fill: #bbd2d9;
      }

      .cls-44 {
        fill: #58362d;
      }

      .cls-45 {
        stroke-width: 1.29px;
      }

      .cls-46 {
        stroke-width: 1.78px;
      }

      .cls-47 {
        stroke-width: 1.76px;
      }
    </style>
    <clipPath id="clip-path" transform="translate(-11.16 -15.49)">
      <rect class="cls-1" x="-93.01" y="-210.02" width="2459.87" height="1843.48"/>
    </clipPath>
    <clipPath id="clip-path-2" transform="translate(-11.16 -15.49)">
      <rect class="cls-1" x="-93.01" y="-210.02" width="2459.87" height="1843.48"/>
    </clipPath>
    <clipPath id="clip-path-3" transform="translate(-11.16 -15.49)">
      <rect class="cls-1" x="265.49" y="1392.94" width="1728.17" height="56.9"/>
    </clipPath>
  </defs>
  <title>14_[Bnefits]_Collaboration</title>
  <g class="cls-2">
    <g class="cls-3">
      <path class="cls-4" d="M2082,562.73c-158.68-65.78-386.56-117.9-590.77-213.1-214.78-100.13-424-230.81-663.92-248S330.21,149,170,314.78C51.22,437.77-4.36,609.18,14.9,773s111.33,318.19,246.51,425.8c101.8,81,225.5,135.73,352.88,175.41,457.56,142.53,981.21,92.23,1397.22-134.22,105.51-57.43,208.35-130.1,258.58-233.21,60.24-123.66,65.49-338.91-188.11-444" transform="translate(-11.16 -15.49)"/>
      <path class="cls-4" d="M2289,589.89c-7.32-14.13-65.92-49.58-133.15-59.33-8.94-1.3-16.64,5.78-12.53,13.22.51.92,1,1.52,1.51,1.61,16.77,10.2,36.39,15.59,54.24,24.08,27.47,13.06,50.67,33.66,65.87,58.5a12.24,12.24,0,0,0,3.62,4.3c3,1.91,7.25,1,10.46-.73,14.75-7.71,17.3-27.52,10-41.65" transform="translate(-11.16 -15.49)"/>
      <path class="cls-4" d="M35.68,1017.16h0a3.82,3.82,0,0,0,.13,1c6.43,24.05,10.6,48.62,18.36,72.34s19.65,47.25,39,64.61S140.45,1183,167,1178.19c2-.37,4.2-.88,4.84-3.46a6.65,6.65,0,0,0-2-6.16c-46.54-47.73-94.91-95.93-125.58-153.27-2.13-4-8.59-2.57-8.56,1.86" transform="translate(-11.16 -15.49)"/>
      <path class="cls-4" d="M304,1271.13a246.66,246.66,0,0,0-38.93-28.23c-7.63-4.47-17.37,1.67-15.62,9.86a9,9,0,0,0,1.75,3.76,154.56,154.56,0,0,0,28.47,28c8.39,6.35,22.83,11.23,27.81,1,2.4-4.91.73-10.67-3.48-14.4" transform="translate(-11.16 -15.49)"/>
      <path class="cls-4" d="M1376.72,241.15c-30.29-10.59-68.67-25.62-98.35-39.94a6.21,6.21,0,0,0-8.22,2.55,5.31,5.31,0,0,0,2.19,7,1099.6,1099.6,0,0,0,166.47,80.44c5.77,2.21,11-4.19,7-8.64-17.36-19.41-43.17-32.36-69.09-41.41" transform="translate(-11.16 -15.49)"/>
      <path class="cls-5" d="M1133.5,213.34a11,11,0,0,1,.88-2.64c.23.05-1,3.72-1.34,10.56A52.54,52.54,0,0,0,1139.7,249c2.77,5.45,6.39,11.19,9.2,18a39.43,39.43,0,0,1,2.36,23.18,41.78,41.78,0,0,1-12.57,22.48c-6.68,6.26-16.13,9.75-25.75,9.84a40.51,40.51,0,0,1-26.12-8.93,40.77,40.77,0,0,1-11.62-45.34c2.74-6.94,7.1-12.31,10.73-17.24s6.89-9.44,8.76-13.9a32,32,0,0,0,2.81-11.94c0-6.87-2.7-10.1-2.39-10.18a9.29,9.29,0,0,1,1.46,2.37" transform="translate(-11.16 -15.49)"/>
      <path class="cls-5" d="M1108.28,217.39q.1,11.25.19,22.51a158.48,158.48,0,0,1-.76,21c-.37,2.9-1,6.05-3.35,7.85a3.81,3.81,0,0,1-2,.88c-2.09.17-3.62-1.95-4.34-3.92a2.27,2.27,0,0,1-.18-1.44,2.35,2.35,0,0,1,1.29-1.24,37.25,37.25,0,0,1,19.91-4.31c2.38.16,5,.72,6.34,2.7a5.82,5.82,0,0,1,.8,3.88,5.65,5.65,0,0,1-2,3.9,3.43,3.43,0,0,1-4.15.14c-1.12-.92-1.34-2.51-1.47-3.95a226.32,226.32,0,0,1,.87-49" transform="translate(-11.16 -15.49)"/>
      <path class="cls-6" d="M1096.6,158.78c-77.67,0-143.32,85.09-143.32,85.09h323.84s-65.38-85.09-134.57-85.09Z" transform="translate(-11.16 -15.49)"/>
      <line class="cls-5" x1="971.78" y1="203.27" x2="1056.26" y2="203.27"/>
      <line class="cls-5" x1="1110.59" y1="203.27" x2="1185.26" y2="203.27"/>
      <line class="cls-5" x1="1219.32" y1="203.27" x2="1240.09" y2="203.27"/>
      <line class="cls-5" x1="1104.04" y1="113.06" x2="1104.04" y2="0.85"/>
      <polygon class="cls-6" points="1075.37 144.91 1086.45 95.33 1123.24 95.33 1132.62 144.91 1075.37 144.91"/>
      <g class="cls-7">
        <g class="cls-8">
          <path d="M1965.21,1449.84H293.94a28.45,28.45,0,0,1,0-56.9H1965.21a28.45,28.45,0,1,1,0,56.9" transform="translate(-11.16 -15.49)"/>
        </g>
      </g>
      <path class="cls-9" d="M2110,1253.48c-27.17-29.33-76.61-87-96.72-121.73l39.38-10.22c-16.31-1.85-47.77-8.73-47.62-7.86a246.18,246.18,0,0,1-9.46-34.73s15.7-5.92,22.45-7.73c0,0-19.06-8.88-25.77-12a306.31,306.31,0,0,1-10-46.63l.51.9c21.77,19,80.05,28,126,214.7Z" transform="translate(-11.16 -15.49)"/>
      <path class="cls-10" d="M1988,1019.34c40.23,27.19,93.79,80.1,126.67,262.48" transform="translate(-11.16 -15.49)"/>
      <path class="cls-9" d="M2135.68,1065.06c11.17-23.3,34.63-74.41,41.62-99.34,4-14.2,7.28-29.07,4.93-43.64l-.22-3.73a69.58,69.58,0,0,0-13.56-4.85l1.82-4,21.7-6.62-1.69,2.74a251.94,251.94,0,0,0,29.41-67.54l-2.33-2.1a170.86,170.86,0,0,0-21.8-1.18l5.53-3c5.24-5.51,14.14-7,17.9-13.69,1.82-3.23,2.06-7.12,2.25-10.85q.8-15.9,1.61-31.81l-.89.1c-49.32,42.42-89.89,112.66-105.17,176.51Z" transform="translate(-11.16 -15.49)"/>
      <path class="cls-9" d="M2134.54,1070.43c20.41-48.19,44.16-103.89,83.33-138.58-.25,25.39-6.93,87.49-6.93,87.49l-17.84,6.2,14.42,13.63-38.39,118.15-6.46,14.13-13.54,6,3.84,11.13s-29.83,22.55-33.8,38.46A543,543,0,0,1,2131.32,1088Z" transform="translate(-11.16 -15.49)"/>
      <path class="cls-10" d="M2207.52,950.22c-34.74,75.67-52.08,155.63-66.15,236.44-5.43,31.17-10.88,62.6-9.93,94.23" transform="translate(-11.16 -15.49)"/>
      <path class="cls-11" d="M2117.67,1215.37c-44.89-49.45-73.3-114.12-79.59-181.13a86.82,86.82,0,0,1,37.77,4.15c-7.8-15.53-28.8-21.33-34.78-37.68-2.15-5.87-2-12.32-1.74-18.58q.9-22.27,2.92-44.48l34.68,11c-12-4.08-20.53-15.43-24.42-27.67s-3.79-25.39-3.18-38.24a524.19,524.19,0,0,1,6.71-62.12l.1,1.4c42.14,47.63,63.09,111,74.61,174a486.14,486.14,0,0,1-11.23,225.28Z" transform="translate(-11.16 -15.49)"/>
      <path class="cls-12" d="M2066.6,862.9a1056.26,1056.26,0,0,1,46.4,242.6c1.41,19.51,2.27,39,3.13,58.59l5.29,120" transform="translate(-11.16 -15.49)"/>
      <path class="cls-11" d="M2285.73,942.64c-19.15,14.25-79.51,76.7-79.51,76.7l9.94,17.42-16.71-3-20.26,92.94s-9-19.54-11-30.09a400.11,400.11,0,0,0-7.95,124.42l1.68.23c30.63-22.7,73-87.25,73-87.25l-25.39-14.44,36.27-14,27.71-71.32-15.58-4.69,25.55-19.94Z" transform="translate(-11.16 -15.49)"/>
      <path class="cls-10" d="M2278,956.85c-61.7,101.14-110.16,213-134.06,329" transform="translate(-11.16 -15.49)"/>
      <rect class="cls-13" x="2010.05" y="1255.27" width="220.06" height="30.24"/>
      <path class="cls-13" d="M2241.64,1301.37H2020.83v-31h220.81Zm-220-.76h219.3v-29.48h-219.3Z" transform="translate(-11.16 -15.49)"/>
      <polygon class="cls-13" points="2030.46 1275.44 2062.13 1406.97 2179.33 1406.97 2209.95 1285.5 2030.46 1275.44"/>
      <path class="cls-14" d="M2241.63,1300.86c0,.44-49.43.79-110.39.79s-110.39-.35-110.39-.79,49.42-.78,110.39-.78,110.39.35,110.39.78" transform="translate(-11.16 -15.49)"/>
      <path class="cls-15" d="M684.44,954.7c-13-116.7-23.07-247.84-26.67-292.8-.7-8.68-1.23-17.37-1.68-26.07-.27-5.28-.39-10.75,1.77-15.59,4-8.91,14.29-13.14,23.9-15.5,11.7-2.87,123.69-4.62,177-5.3a31,31,0,0,1,31.37,26.86l40.05,356.09L684.44,954.7" transform="translate(-11.16 -15.49)"/>
      <path class="cls-15" d="M862.72,853.51c4,46.5,9.48,99.66,18.08,145.07,2.47,13,6,27.34,17.11,34.92,4.59,3.13,106.3,20.51,158.12,16.4a7.51,7.51,0,0,0,6.93-6.49c1.87-14.9,6.31-54.55,3.66-76.05-3.31-26.83-13.27-53.47-31.91-73.38-28.39-30.33-73.06-41.18-115.05-40.43Z" transform="translate(-11.16 -15.49)"/>
      <path d="M881.06,877.64c-7.48-5.87-8.37-15-8.32-24.12l46.92,0a217.06,217.06,0,0,1,27.28,1.21c-17.92,16.4-41,41.64-65.88,22.88" transform="translate(-11.16 -15.49)"/>
      <path class="cls-16" d="M1057.73,931.34a115.3,115.3,0,0,0-23-37.36c-24-25.61-59.55-37.33-95.32-39.91-1.09-.08-43-1.64-44-1.7" transform="translate(-11.16 -15.49)"/>
      <path class="cls-16" d="M848,681.26c6.76,107.29,24.19,271.91,32.79,317.32,2.47,13,6,27.34,17.11,34.92,4.59,3.13,106.3,20.51,158.12,16.4a7.51,7.51,0,0,0,6.93-6.49c1.76-14,5.78-49.86,4.06-72" transform="translate(-11.16 -15.49)"/>
      <path class="cls-15" d="M1006,1048.76H859.69a11.86,11.86,0,1,1,0-23.72H1006a11.86,11.86,0,0,1,0,23.72" transform="translate(-11.16 -15.49)"/>
      <path class="cls-17" d="M842.86,1369.8H809.47V1040.06H783.14V1369.8H749.75c-24.29,0-44,19.3-44,43.11H886.84c0-23.81-19.69-43.11-44-43.11" transform="translate(-11.16 -15.49)"/>
      <path class="cls-18" d="M842.86,1369.8H809.47V1040.06H783.14V1369.8H749.75c-24.29,0-44,19.3-44,43.11H886.84C886.84,1389.1,867.15,1369.8,842.86,1369.8Z" transform="translate(-11.16 -15.49)"/>
      <polygon points="798.31 1024.58 771.98 1024.58 771.98 1090.48 798.31 1069.41 798.31 1024.58"/>
      <line class="cls-18" x1="781.01" y1="1354.31" x2="800.57" y2="1354.31"/>
      <path class="cls-19" d="M879.9,1048.76H859.69a11.86,11.86,0,1,1,0-23.72H879.9a11.86,11.86,0,1,1,0,23.72" transform="translate(-11.16 -15.49)"/>
      <path class="cls-20" d="M879.9,1048.76H859.69a11.86,11.86,0,1,1,0-23.72H879.9a11.86,11.86,0,1,1,0,23.72Z" transform="translate(-11.16 -15.49)"/>
      <path class="cls-16" d="M660.91,615.44c2.68-3.24,7.74-3.84,11.69-2.28s6.93,4.82,9.29,8.29c10.48,15.44,22.5,212.37,22.33,230.92" transform="translate(-11.16 -15.49)"/>
      <path class="cls-21" d="M1114.92,628.72c5.87-11.74,10.22-29,11.35-36.11.42-2.63,3.16-4.11,5.26-2.41,3,2.4,5.13,7.19,5.67,10.45.79,4.73-1.3,12.61-2.43,15.79s-.75,8.4,2.19,8.15,7-.27,10-2.59l15.94,51.92c-8.46,7.34-19.15,8.94-22.55,9.88-3.2.89-10.33,8.52-10.33,8.52l-26.32-39.74c6.1-5,8.76-18.89,11.24-23.86" transform="translate(-11.16 -15.49)"/>
      <path class="cls-22" d="M1170.88,660.74c.73,2.84,1.31,8.82-.59,11.08-1.49,1.77-3.88,2.54-6.18,3a34.45,34.45,0,0,1-19-1.84,7.15,7.15,0,0,1-2.51-1.49c-1.75-1.8-.59-6.78-.06-9.21" transform="translate(-11.16 -15.49)"/>
      <path class="cls-21" d="M1170.88,660.74c2.78,3.11,1.94,8.91-.59,11.08a13.11,13.11,0,0,1-6.18,3,34.45,34.45,0,0,1-19-1.84,7.15,7.15,0,0,1-2.51-1.49c-1.75-1.8-.59-6.78-.06-9.21" transform="translate(-11.16 -15.49)"/>
      <path class="cls-21" d="M1174,646.14c1.46,1.66,2.06,3.67,1.74,6.94-.25,2.59-1.24,6.72-3.42,7.7-2.53,1.13-26.5,2.2-29.16,1.44-4.34-1.25-4-4-2.38-12.75" transform="translate(-11.16 -15.49)"/>
      <path class="cls-21" d="M1176.89,630.3c2.78,8.33-1.78,15.07-2.94,15.84-4.68,3.09-23,8-32.08,4.59-4.46-1.67-4.42-8.38-4-12.37" transform="translate(-11.16 -15.49)"/>
      <path class="cls-21" d="M1170.47,615.49a8.36,8.36,0,0,1,9.81,6.49,8.2,8.2,0,0,1-6.62,9.61l-28.5,5.53a8.37,8.37,0,0,1-9.93-7.17,8.24,8.24,0,0,1,6.77-9Z" transform="translate(-11.16 -15.49)"/>
      <path d="M1164.16,674.59c-1.21-.38-2.83.07-4.09.1a38.86,38.86,0,0,1-4.45-.17,34.68,34.68,0,0,1-8.66-1.86,9.25,9.25,0,0,1-3.57-1.79,3.7,3.7,0,0,1-.74-2.51,46.47,46.47,0,0,1,.6-6.11c.09-.87-1.21-1-1.46-.2a17.64,17.64,0,0,0-1.13,7.11c.26,2.75,2.1,3.94,4.53,4.84a35.09,35.09,0,0,0,9.65,2.06,28.28,28.28,0,0,0,5-.13c1.34-.14,3.28-.14,4.37-1a.21.21,0,0,0-.09-.35" transform="translate(-11.16 -15.49)"/>
      <path d="M1169.93,660.32a131.41,131.41,0,0,1-21.35,1.15,34.76,34.76,0,0,1-5.11-.24c-.93-.18-2.44-.74-2.79-2a8.84,8.84,0,0,1,0-3.12c.19-1.84.47-3.69.7-5.53.11-1-1.45-1.14-1.68-.23-.69,2.8-1.64,6-1.18,8.87a4.55,4.55,0,0,0,3.21,3.61,14.47,14.47,0,0,0,4.81.62c3.26.1,6.53.06,9.78-.06a123.28,123.28,0,0,0,14.11-1.28c1.21-.18.69-2-.5-1.82" transform="translate(-11.16 -15.49)"/>
      <path d="M1173.94,646.09a71.18,71.18,0,0,1-15.88,4.34,47,47,0,0,1-10,.63c-2.67-.15-6.39-.43-8-2.9-1.8-2.77-1.47-6.64-1.48-9.8,0-.74-1.18-1-1.33-.18a16.38,16.38,0,0,0,.6,9.5c1.31,3.1,4,4.19,7.15,4.66,7,1.06,14.66-.34,21.35-2.52,2.61-.84,5.64-1.72,7.68-3.65,0,0,0-.1,0-.08" transform="translate(-11.16 -15.49)"/>
      <path class="cls-23" d="M1173.66,631.59l-28.5,5.53a8.36,8.36,0,0,1-9.93-7.17,8.13,8.13,0,0,1,1.42-5.57" transform="translate(-11.16 -15.49)"/>
      <path class="cls-23" d="M1136.29,634.76a29.05,29.05,0,0,1-9.54,26.56" transform="translate(-11.16 -15.49)"/>
      <path class="cls-17" d="M950.3,616.5,993,751.71,1102,650l29.16,44L1008.51,829c-17.91,19.71-50.21,16.57-63.82-6.2l-33.62-56.24Z" transform="translate(-11.16 -15.49)"/>
      <polyline class="cls-24" points="1090.82 634.5 1119.98 678.55 1015.87 793.13"/>
      <polyline class="cls-24" points="974.34 752.48 981.88 736.22 1034.77 686.84"/>
      <path class="cls-17" d="M709,906.83l.73-61.48L672.82,690.67c-10-31,6.28-64.36,37.24-76.12L777.66,587l86.88-3.46L950.3,616.5l-32.63,286Z" transform="translate(-11.16 -15.49)"/>
      <line class="cls-24" x1="914.41" y1="815.41" x2="931.75" y2="665.77"/>
      <path d="M854.86,660.55a2.71,2.71,0,1,1-2.7-2.65,2.68,2.68,0,0,1,2.7,2.65" transform="translate(-11.16 -15.49)"/>
      <path d="M854.86,675.78a2.71,2.71,0,1,1-2.7-2.65,2.68,2.68,0,0,1,2.7,2.65" transform="translate(-11.16 -15.49)"/>
      <polygon class="cls-21" points="853.38 570.11 850.28 634.5 766.5 571.55 766.5 480.18 853.38 480.18 853.38 570.11"/>
      <polyline class="cls-24" points="851.41 610.99 882 618.2 864.63 572.26"/>
      <polyline class="cls-24" points="753.26 575.79 801.18 632.74 827.39 617.3 850.21 634.04 850.21 665.7"/>
      <path class="cls-25" d="M864.54,495.66l-87.44-.46.4,21.69c1.27,7.46-1.58,13.5,4.2,18.52l77.21,56.86,5.63-6.67Z" transform="translate(-11.16 -15.49)"/>
      <path class="cls-21" d="M765.81,478.35c.79,3.23,3.49,15,6.15,26.63.25,1.11,7.93,1.67,8.26,2.76,4.45,14.93,8,27.78,22.7,34.06,8,3.45,16.46,7.14,22.61,10.05a37.18,37.18,0,0,0,20.77,3.21l.38,0a37,37,0,0,0,26.87-17.4c3.15-5.19,6.16-10.31,7.36-12.73,2.41-4.9,4.86-9.89,5.62-15.27a27.49,27.49,0,0,0,.17-7.63c-3.23-23.73-6-44.29-8.86-65q-.39-2.85-.77-5.67c-4.43-32.51-35.17-55.15-68.24-50.25-34.66,5.13-57.42,38.22-49.27,71.64Z" transform="translate(-11.16 -15.49)"/>
      <path class="cls-26" d="M877.16,459a67.67,67.67,0,0,0-22-1.9" transform="translate(-11.16 -15.49)"/>
      <path class="cls-26" d="M834.38,459.52A52,52,0,0,0,810.64,468" transform="translate(-11.16 -15.49)"/>
      <path d="M868.75,477.63h.07a3.83,3.83,0,0,0,3.33-4.29l-.55-4a3.87,3.87,0,0,0-4.36-3.28h-.07a3.83,3.83,0,0,0-3.34,4.28l.55,4a3.87,3.87,0,0,0,4.37,3.27" transform="translate(-11.16 -15.49)"/>
      <path d="M828.88,482.86h.06a3.82,3.82,0,0,0,3.34-4.28l-.55-4a3.87,3.87,0,0,0-4.36-3.27h-.07a3.83,3.83,0,0,0-3.34,4.28l.55,4a3.87,3.87,0,0,0,4.37,3.27" transform="translate(-11.16 -15.49)"/>
      <path class="cls-24" d="M852.07,483.12c3,4.19,6.35,13.54,5.69,15.33a8.81,8.81,0,0,1-4.56,4.61,27,27,0,0,1-6.4,1.88" transform="translate(-11.16 -15.49)"/>
      <polygon points="840.42 490.92 844.38 500.81 834.75 499.91 835.84 491.5 786.82 497.67 773.13 473.22 765.24 473.53 774.1 520.73 828.04 546.49 855.42 542.9 876.73 509.18 875.49 486.51 840.42 490.92"/>
      <path class="cls-17" d="M830.64,517.09l35.1-3.9s-.25,12.74-14.42,14.6c-16.17,2.12-20.68-10.7-20.68-10.7" transform="translate(-11.16 -15.49)"/>
      <path d="M806.05,433.32l29.91.85a62.36,62.36,0,0,0,37.78-11.39l1.22-.94c-9.47-30.76-40.07-45.82-68.73-40.33-33.62,6.43-55,37.79-46.38,72.41l7.6,37,16.84-2.21-3.39-24.89a9.64,9.64,0,0,1,8.42-10.8A8.77,8.77,0,0,0,797,443.2a8.8,8.8,0,0,1,9.08-9.88" transform="translate(-11.16 -15.49)"/>
      <path class="cls-21" d="M772.12,469.16c-5.31-4.77-14.88-3.65-18.91,2.2a18.69,18.69,0,0,0-2.74,7.71,38.91,38.91,0,0,0,1.65,18.66c2.09,6,6,11.85,12,14.32s13.52,1.55,16.07-4.31" transform="translate(-11.16 -15.49)"/>
      <path class="cls-24" d="M772.59,496.18a4.49,4.49,0,0,0-.49-2.6A17.49,17.49,0,0,0,762,484.25" transform="translate(-11.16 -15.49)"/>
      <path class="cls-24" d="M772.46,495.29c.19-.1,0-.39-.12-.53a13.46,13.46,0,0,0-10.65-3.09" transform="translate(-11.16 -15.49)"/>
      <path d="M1125.4,1211.25c3,4.47,5,37.79,8,42.26a9.58,9.58,0,0,0,3.64,3.72,10,10,0,0,0,4,.58q51.36.43,102.56,5.43c10.31,1,20.93,2.13,30.85-.81s19-11.09,19.48-21.23a6.19,6.19,0,0,0-.86-3.93c-1.3-1.8-3.89-1.81-6.07-2.34-34.57-8.46-64.36-18.23-88-34.26" transform="translate(-11.16 -15.49)"/>
      <line class="cls-27" x1="1208.31" y1="1196.06" x2="1198.08" y2="1204.11"/>
      <line class="cls-27" x1="1215.67" y1="1200.09" x2="1205.44" y2="1208.13"/>
      <line class="cls-27" x1="1223.76" y1="1203.54" x2="1213.53" y2="1211.58"/>
      <path d="M1125.4,1211.72c3,4.48,5,37.79,8,42.26a9.51,9.51,0,0,0,3.64,3.72,10,10,0,0,0,4,.58q51.36.45,102.56,5.43c10.31,1,20.93,2.13,30.85-.81s19-11.08,19.48-21.23a6.2,6.2,0,0,0-.86-3.93c-1.3-1.8-3.89-1.81-6.07-2.34-34.57-8.46-64.36-18.23-88-34.25" transform="translate(-11.16 -15.49)"/>
      <line class="cls-27" x1="1208.31" y1="1196.53" x2="1198.08" y2="1204.58"/>
      <line class="cls-27" x1="1215.67" y1="1200.56" x2="1205.44" y2="1208.61"/>
      <line class="cls-27" x1="1223.76" y1="1204.01" x2="1213.53" y2="1212.06"/>
      <path class="cls-28" d="M734.46,920.37s308.28-88.1,336.11-75.25S1209.68,1205,1209.68,1205l-84.4,11.37L1012.76,946.69s-219,83.59-254.12,76.5-24.18-102.82-24.18-102.82" transform="translate(-11.16 -15.49)"/>
      <path d="M940.89,1362.92c-3.22,6.87-9.83,41.67-6.83,46.14a9.47,9.47,0,0,0,3.65,3.72,9.9,9.9,0,0,0,4,.58q51.38.44,102.56,5.43c10.31,1,20.93,2.13,30.85-.81s19-11.09,19.48-21.23a6.2,6.2,0,0,0-.86-3.93c-1.3-1.8-3.89-1.81-6.07-2.34-34.57-8.46-64.36-18.23-88-34.26" transform="translate(-11.16 -15.49)"/>
      <line class="cls-27" x1="1008.95" y1="1351.61" x2="998.72" y2="1359.66"/>
      <line class="cls-27" x1="1016.31" y1="1355.64" x2="1006.09" y2="1363.68"/>
      <line class="cls-27" x1="1024.4" y1="1359.09" x2="1014.18" y2="1367.13"/>
      <path class="cls-28" d="M1012.76,946.69a297.48,297.48,0,0,1,31.1,26.61,42.23,42.23,0,0,1,12.33,34.58L1015,1361.6l-80,8.19,6.93-341.68-185-4.57" transform="translate(-11.16 -15.49)"/>
      <path class="cls-23" d="M874.1,995.83l138.66-49.14s46.67,21.76,43.68,54.16-14.57,139.33-14.57,139.33" transform="translate(-11.16 -15.49)"/>
      <path class="cls-15" d="M673.8,853.51c4,46.5,9.48,99.66,18.08,145.07,2.47,13,6,27.34,17.11,34.92,4.59,3.13,106.3,20.51,158.12,16.4,3.59-.28,11.41-3.49,11.41-12.31,0-18.14,1.83-48.73-.82-70.23-3.31-26.83-13.27-53.47-31.91-73.38-28.39-30.33-73.06-41.18-115-40.43Z" transform="translate(-11.16 -15.49)"/>
      <path d="M692.14,877.64c-7.57-5.76-8.37-15-8.32-24.12l46.92,0c9-.16,33.86,1,49.32,4.9l-44,9.35c-12.53,16.46-29.65,20.68-43.93,9.84" transform="translate(-11.16 -15.49)"/>
      <path class="cls-16" d="M868.81,931.34a115.3,115.3,0,0,0-23-37.36c-24-25.61-59.55-37.33-95.32-39.91-1.09-.08-43-1.64-44.05-1.7" transform="translate(-11.16 -15.49)"/>
      <path class="cls-16" d="M659.09,681.26c6.76,107.29,24.19,271.91,32.79,317.32,2.47,13,6,27.34,17.11,34.92,4.59,3.13,106.3,20.51,158.12,16.4,3.59-.28,11.41-2.12,11.41-12.31,0-16.57,1.3-44-.42-66.15" transform="translate(-11.16 -15.49)"/>
      <path class="cls-16" d="M845.52,944.24a115.24,115.24,0,0,0-23-37.37c-24-25.61-59.55-37.33-95.32-39.91-1.09-.08-43-1.63-44.06-1.69" transform="translate(-11.16 -15.49)"/>
      <path class="cls-16" d="M846.66,1049.9c3.6-.28,9-4,9-11,0-14.9.88-32.42-.84-54.53" transform="translate(-11.16 -15.49)"/>
      <path class="cls-15" d="M196.53,961.21c-13-119-23.07-252.8-26.67-298.66-.7-8.86-1.22-17.72-1.68-26.59-.27-5.39-.39-11,1.77-15.91,4-9.08,14.29-13.4,23.9-15.81,11.7-2.92,123.69-4.71,177-5.4a31.18,31.18,0,0,1,31.37,27.39l40,363.22L196.53,961.21" transform="translate(-11.16 -15.49)"/>
      <path class="cls-17" d="M305.74,1380.38h33.39V1044h26.33v336.34h33.39a44,44,0,0,1,44,44H261.76a44,44,0,0,1,44-44" transform="translate(-11.16 -15.49)"/>
      <path class="cls-29" d="M305.74,1380.38h33.39V1044h26.33v336.34h33.39a44,44,0,0,1,44,44H261.76A44,44,0,0,1,305.74,1380.38Z" transform="translate(-11.16 -15.49)"/>
      <polygon points="327.97 1028.55 354.3 1028.55 354.3 1095.77 327.97 1074.29 327.97 1028.55"/>
      <line class="cls-29" x1="345.28" y1="1364.89" x2="325.72" y2="1364.89"/>
      <path class="cls-15" d="M516.67,1058.32H370.86a12.1,12.1,0,1,1,0-24.2H516.67a12.1,12.1,0,1,1,0,24.2" transform="translate(-11.16 -15.49)"/>
      <path class="cls-30" d="M390.59,1058.32H370.86a12.1,12.1,0,1,1,0-24.2h19.73a12.1,12.1,0,1,1,0,24.2Z" transform="translate(-11.16 -15.49)"/>
      <path class="cls-15" d="M374.81,858c4,47.43,9.48,101.65,18.08,148,2.47,13.3,6,27.89,17.11,35.62,4.59,3.19,106.3,20.92,158.12,16.73a7.58,7.58,0,0,0,6.93-6.62c1.87-15.2,6.31-55.65,3.66-77.58-3.31-27.36-13.27-54.54-31.91-74.84-28.39-30.95-73.06-42-115-41.25Z" transform="translate(-11.16 -15.49)"/>
      <path d="M393.15,882.6c-7.48-6-8.37-15.25-8.32-24.6l46.92,0A211.58,211.58,0,0,1,459,859.27c-17.92,16.73-41,42.47-65.88,23.33" transform="translate(-11.16 -15.49)"/>
      <path class="cls-30" d="M569.82,937.39a117.92,117.92,0,0,0-23-38.11c-24-26.13-59.55-38.08-95.32-40.71-1.09-.08-43-1.67-44.05-1.74" transform="translate(-11.16 -15.49)"/>
      <path class="cls-30" d="M360.1,682.29c6.76,109.44,24.19,277.36,32.79,323.68,2.47,13.3,6,27.89,17.11,35.62,4.59,3.19,106.3,20.92,158.12,16.73a7.58,7.58,0,0,0,6.93-6.62c1.76-14.28,5.78-50.86,4.06-73.42" transform="translate(-11.16 -15.49)"/>
      <path class="cls-30" d="M173,615.15c2.68-3.3,7.74-3.91,11.69-2.32s6.93,4.91,9.29,8.45c10.48,15.76,22.5,216.63,22.33,235.55" transform="translate(-11.16 -15.49)"/>
      <path class="cls-31" d="M350.7,434.81a51.76,51.76,0,1,1-51.76-51.76,51.76,51.76,0,0,1,51.76,51.76" transform="translate(-11.16 -15.49)"/>
      <path class="cls-32" d="M293.81,463a51.51,51.51,0,0,0,5.71,23.55A51.69,51.69,0,0,0,345,411.26,51.75,51.75,0,0,0,293.81,463" transform="translate(-11.16 -15.49)"/>
      <path class="cls-31" d="M469.12,479.83a78.5,78.5,0,1,1-78.5-78.5,78.49,78.49,0,0,1,78.5,78.5" transform="translate(-11.16 -15.49)"/>
      <polygon class="cls-33" points="487.4 621.78 533.18 824.76 488.4 853.09 441.98 761.42 487.4 621.78"/>
      <polygon class="cls-17" points="308.64 913.29 296.63 792.37 253.59 613.44 369.99 573.99 465.94 611.59 478.58 898.68 308.64 913.29"/>
      <path class="cls-6" d="M567.41,1364.62H604.1l35.75-311.3c.84-12-3.64-23.73-12-31.32L489.74,914.17H389s-14.15,88.2,28.32,113,140.42,57.24,140.42,57.24" transform="translate(-11.16 -15.49)"/>
      <line class="cls-30" x1="499.77" y1="923.51" x2="624.52" y2="1014.6"/>
      <path class="cls-6" d="M562.61,1054.71l-12.77,36.6a30.41,30.41,0,0,0-1.61,12.19l19.18,261.12" transform="translate(-11.16 -15.49)"/>
      <path d="M562,1054.53c-3.92,10.51-7.67,21.07-11.41,31.64-.55,1.57-1.12,3.14-1.67,4.72a32.06,32.06,0,0,0-1.74,12.63c.05.94.13,1.88.19,2.82.43,6.16.89,12.31,1.33,18.46l2.31,31.66,2.92,40.23,3.21,44.16,3.16,43.46,2.78,38.11c.68,9.38,1.35,18.76,2.08,28.13.23,3,.5,5.9.81,8.85.18,1.69.22,2.9.5,4.67,0,.11,0,.23,0,.34.11.83-.08-.34,0,0a.86.86,0,0,1,0,.16c.09,1.14,1.88,1.15,1.79,0,0,0,0-.11,0-.16s0-.06,0-.08c-.11.75,0,.2,0-.09,0-.08,0-.17,0-.26,0-.58,0-1.19-.07-1.77-.08-2.31-.15-4.62-.27-6.92-.45-8.34-1.17-16.68-1.79-25l-2.67-36q-1.58-21.21-3.14-42.42l-3.3-44.42L554,1165.86q-1.26-17.05-2.53-34.13-.82-11.09-1.64-22.18c-.13-1.73-.27-3.46-.4-5.19a31.88,31.88,0,0,1,1.53-13c3.76-11,7.62-22,11.23-33.13.37-1.11.73-2.23,1.09-3.35.27-.81-1-1.12-1.25-.35" transform="translate(-11.16 -15.49)"/>
      <path class="cls-6" d="M470.44,1364.62h42.92l23.81-311.3c.85-12-3.63-23.73-12-31.32L403.45,914.17H290.89s-17.88,80.23,24.59,105c27.76,16.21,96.26,57.77,122.52,69.24" transform="translate(-11.16 -15.49)"/>
      <path class="cls-33" d="M308.18,917.58l-.4-109.72-43-178.93,59.81-20.27L379.42,772.6l5,145.62A31,31,0,0,1,346,955.37Z" transform="translate(-11.16 -15.49)"/>
      <polyline class="cls-34" points="297.25 597.84 299.05 670.99 317.17 675.34 302.67 690.92 354.5 763.63"/>
      <path class="cls-30" d="M435.12,944.24l93.43,80a26.88,26.88,0,0,1,9.31,22.58L534.44,1089" transform="translate(-11.16 -15.49)"/>
      <path class="cls-6" d="M461.48,1052l-18.1,26.45c-2.14,3.13-4.33,6.35-5.38,10-1.25,4.39-.8,9.09-.34,13.65,10,99.52,22.78,163,32.78,262.52" transform="translate(-11.16 -15.49)"/>
      <path d="M461.19,1051.66c-3.5,4.48-6.72,9.21-9.94,13.89s-6.59,9.45-9.79,14.24c-2.9,4.32-4.88,8.73-5.06,14-.19,5.62.81,11.32,1.39,16.9q3.3,32.13,7.45,64.16c2.5,19.52,5.19,39,7.88,58.51s5.42,39.18,7.93,58.79q2,15.58,3.84,31.18,1,8.17,1.87,16.35c.62,5.54,1.06,11.12,1.84,16.64q.6,4.25,1.18,8.49c.1.77,1.4.59,1.35-.18-1.42-21.64-4.29-43.21-7.05-64.71-2.5-19.41-5.19-38.79-7.92-58.17s-5.49-38.77-8.09-58.17q-4.17-31.15-7.65-62.4c-.62-5.63-1.23-11.27-1.78-16.91-.52-5.4-1.36-11.11.41-16.37s5.45-9.7,8.5-14.18q4.84-7.12,9.64-14.29c1.6-2.4,3.17-4.79,4.65-7.26.23-.39-.36-.87-.65-.5" transform="translate(-11.16 -15.49)"/>
      <path class="cls-35" d="M599.6,1365.23s-10.15,19.67,17.34,41.29c0,0,26.83,27.73,23.15,32.13s-31.89,5-49.06,0-17.59-37.52-25.36-51.49c-2.43-4.38,1.35-16.89,7.28-22.54" transform="translate(-11.16 -15.49)"/>
      <path class="cls-36" d="M600.12,1364.62s.5,6.55,2.56,17.82c1.71,9.36,23.92,34.86,23.1,37.37s-22.9,4.79-31.89-1.69-18.51-29.21-20.49-40.47c-1.85-10.49-.45-13-.45-13" transform="translate(-11.16 -15.49)"/>
      <polygon class="cls-35" points="553.8 1369.25 553.8 1416.13 558.71 1416.13 558.71 1379.24 553.8 1369.25"/>
      <path class="cls-35" d="M507.18,1365.24s-10.15,20,17.35,41.89c0,0,26.83,28.14,23.15,32.6s-31.9,5.1-49.07,0-17.58-38.07-25.35-52.24c-2.64-4.82-.85-17.69,6-22.87" transform="translate(-11.16 -15.49)"/>
      <path class="cls-36" d="M508.47,1364.62s1.61,8.67,3.67,20.11c1.71,9.49,22,33.34,21.23,35.89s-22.9,4.86-31.9-1.71S481.94,1388,480,1376.57c-1.85-10.64-.67-12-.67-12" transform="translate(-11.16 -15.49)"/>
      <polygon class="cls-35" points="461.38 1369.25 461.38 1416.13 466.29 1416.13 466.29 1380.05 461.38 1369.25"/>
      <polygon class="cls-36" points="400.78 681.9 339.2 583.75 339.2 504.44 399.55 504.44 400.78 681.9"/>
      <path d="M410.71,519.93H350.36v9.18c0,16.39,32.61,51.29,32.61,51.29,7.53,7.14,17.91,5.92,24.36-2.87l3.38-4.6Z" transform="translate(-11.16 -15.49)"/>
      <path class="cls-33" d="M480.92,912.07,467.8,767.43,429.16,607.31l69.4,30v293s-16.44-1.24-17.64-18.15" transform="translate(-11.16 -15.49)"/>
      <path class="cls-36" d="M639.2,800.65,665.09,796l41.15,10c6.15,1.49,10.66,7.29,11.06,14.23l.56,9.4-74.15.3Z" transform="translate(-11.16 -15.49)"/>
      <polygon class="cls-33" points="627.51 782.05 469.76 788.42 466.01 851.64 633.02 814.44 627.51 782.05"/>
      <line class="cls-34" x1="490.95" y1="787.57" x2="610.16" y2="782.75"/>
      <polyline class="cls-34" points="469.77 689.76 483.84 753.73 487.4 891.34"/>
      <path class="cls-15" d="M185.89,858c4,47.43,9.48,101.65,18.08,148,2.47,13.3,6,27.89,17.11,35.62,4.59,3.19,106.3,20.92,158.12,16.73,3.59-.29,11.41-3.56,11.41-12.55,0-18.51,1.83-49.72-.82-71.65-3.31-27.36-13.27-54.54-31.91-74.84-28.39-30.95-73.06-42-115-41.25Z" transform="translate(-11.16 -15.49)"/>
      <path d="M204.23,882.6c-7.57-5.86-8.37-15.25-8.32-24.6l46.92,0c9-.16,33.86,1.05,49.32,5l-44,9.54c-12.53,16.79-29.65,21.09-43.93,10" transform="translate(-11.16 -15.49)"/>
      <path class="cls-30" d="M380.9,937.39a117.92,117.92,0,0,0-23-38.11c-24-26.13-59.55-38.08-95.32-40.71-1.09-.08-43-1.67-44.05-1.74" transform="translate(-11.16 -15.49)"/>
      <path class="cls-30" d="M171.18,682.29C177.94,791.73,195.37,959.65,204,1006c2.47,13.3,6,27.89,17.11,35.62,4.59,3.19,106.3,20.92,158.12,16.73,3.59-.29,11.41-2.16,11.41-12.55,0-16.91,1.3-44.93-.42-67.49" transform="translate(-11.16 -15.49)"/>
      <path class="cls-30" d="M357.61,950.54a117.92,117.92,0,0,0-23-38.11c-24-26.13-59.55-38.08-95.32-40.71-1.09-.08-43-1.67-44.06-1.73" transform="translate(-11.16 -15.49)"/>
      <path class="cls-30" d="M358.75,1058.32c3.6-.29,9-4.1,9-11.26,0-15.2.88-33.07-.84-55.63" transform="translate(-11.16 -15.49)"/>
      <path class="cls-33" d="M264.75,628.93,193,838.62a30.77,30.77,0,0,0,58.07,20.17L296.59,745.2Z" transform="translate(-11.16 -15.49)"/>
      <line class="cls-34" x1="285.43" y1="729.72" x2="258.28" y2="797.54"/>
      <path class="cls-36" d="M395.05,811l25.88-4.63,41.16,10c6.14,1.49,10.66,7.29,11.06,14.23l.55,9.4-74.14.3Z" transform="translate(-11.16 -15.49)"/>
      <polygon class="cls-33" points="383.36 792.37 213.46 799.24 213.46 863.83 388.87 824.76 383.36 792.37"/>
      <line class="cls-34" x1="246.8" y1="797.89" x2="366" y2="793.07"/>
      <path class="cls-36" d="M377.09,559.88c-14.31-9.7-21-23.28-25.39-39.29-4.07-15-16.06-26.44-20.07-41.49-4.51-16.91,2.33-35,12.68-49.16,17.24-23.51,52.38-30.34,77.27-14.93,17.38,10.77,28.49,30.16,31.58,50.38,1.3,8.52,1.29,17.18,1,25.8-.71,24-3.8,49.18-17.95,68.56a26.36,26.36,0,0,1-5.45,5.85c-3.58,2.66-8.09,3.74-12.52,4.28a61.11,61.11,0,0,1-41.19-10" transform="translate(-11.16 -15.49)"/>
      <path class="cls-17" d="M427.54,532.32a1.81,1.81,0,0,1,1.41,2.62,12.6,12.6,0,0,1-9.14,6.21,17.48,17.48,0,0,1-13.06-4,29.79,29.79,0,0,1-7.44-9.26.88.88,0,0,1,1-1.27,191.48,191.48,0,0,0,27.21,5.66" transform="translate(-11.16 -15.49)"/>
      <path class="cls-31" d="M318.63,462.77c.28-78.43,110-73.87,120.41-74.56s21.71,3.61,28,11.69A29.5,29.5,0,0,1,473,419c-.2,6.58-2.24,12.89-4.88,18.86-7.5,16.93-22.55,19.69-40.4,27.75-12.23,5.52-59,17.67-81.76,38.72" transform="translate(-11.16 -15.49)"/>
      <path class="cls-36" d="M348.73,485.47c-4.21-5.05-13-5.18-17.37-.26a17.42,17.42,0,0,0-3.43,6.78,36.74,36.74,0,0,0-.82,17.43c1.15,5.82,4,11.67,9.13,14.67s12.72,2.08,15.74-3" transform="translate(-11.16 -15.49)"/>
      <path class="cls-37" d="M342.3,521.68c-.79-1-1.93.54-1.93.54a17.16,17.16,0,0,1,2.4,7.44c.25,7-10.8,7.15-10.89.65a8.8,8.8,0,0,1,3-7.16,16.76,16.76,0,0,1-1.48-1.36c-1.57,2.09-3.17,4.32-3.46,6.93-1.26,11.25,12.92,9.9,14.68,4.58a11.79,11.79,0,0,0-2.28-11.62" transform="translate(-11.16 -15.49)"/>
      <path d="M346.76,510.71a7,7,0,0,0-.59-4.38,17.08,17.08,0,0,0-8-9c-1.11-.58-2.09,1.09-1,1.67a15.19,15.19,0,0,1,5.29,4.56,15.77,15.77,0,0,1,1.71,3.05c.44,1.07,1,2.44.68,3.59a1,1,0,0,0,1.87.51" transform="translate(-11.16 -15.49)"/>
      <path d="M346.31,510.46c2.15-1.47-2.28-4.26-3.42-4.87a13.24,13.24,0,0,0-6.37-1.57,1,1,0,0,0,0,1.93,11,11,0,0,1,4.73,1,11.36,11.36,0,0,1,2.15,1.27,10.43,10.43,0,0,1,.88.74l.42.42a2.11,2.11,0,0,0,.25.27c.19.12-.2.17,0-.32.14-.2.29-.39.44-.58l-.07.05a1,1,0,1,0,1,1.67" transform="translate(-11.16 -15.49)"/>
      <polyline class="cls-34" points="435.23 600.68 463.31 663.22 448.69 668.63 464.66 683.1 462.55 746.94"/>
      <path d="M427.86,498.91a36.3,36.3,0,0,0,3,14.11,34.48,34.48,0,0,0,1.58,3.16c.2.34.94,1.2,1,1.6s-.89.9-1.31,1.16a34.36,34.36,0,0,1-7.48,3.41c-.88.28-.51,1.67.38,1.39a35.47,35.47,0,0,0,7.64-3.44c.74-.45,2.14-1,2.33-2s-.92-2.17-1.38-3a34.32,34.32,0,0,1-4.31-16.36.73.73,0,0,0-1.45,0" transform="translate(-11.16 -15.49)"/>
      <path class="cls-31" d="M453.63,481.77a63.2,63.2,0,0,0-20.12-4.48c-2.34-.13-2.33,3.51,0,3.64a60.14,60.14,0,0,1,19.15,4.35A1.83,1.83,0,0,0,454.9,484a1.87,1.87,0,0,0-1.27-2.24" transform="translate(-11.16 -15.49)"/>
      <path class="cls-31" d="M411.94,477.32a49.6,49.6,0,0,0-23.44,5.17c-2.1,1-.26,4.18,1.84,3.14a45.61,45.61,0,0,1,21.6-4.67c2.34.07,2.34-3.57,0-3.64" transform="translate(-11.16 -15.49)"/>
      <path d="M442,503.91h.06a3.55,3.55,0,0,0,3.55-3.55v-3.79a3.55,3.55,0,0,0-3.55-3.54H442a3.55,3.55,0,0,0-3.55,3.54v3.79a3.55,3.55,0,0,0,3.55,3.55" transform="translate(-11.16 -15.49)"/>
      <path d="M405.28,503.91h.06a3.55,3.55,0,0,0,3.55-3.55v-3.79a3.55,3.55,0,0,0-3.55-3.54h-.06a3.55,3.55,0,0,0-3.55,3.54v3.79a3.55,3.55,0,0,0,3.55,3.55" transform="translate(-11.16 -15.49)"/>
      <path d="M1679.76,1343.09l-2.74,1.33c-.26.13,0,.52.22.39l2.71-1.39c.22-.11,0-.43-.19-.33" transform="translate(-11.16 -15.49)"/>
      <path class="cls-6" d="M582.75,825.1H793.46a13,13,0,0,0,12.81-10.6L834.67,665a13,13,0,0,0-12.81-15.46H611.15a13,13,0,0,0-12.8,10.6L570,809.64a13,13,0,0,0,12.8,15.46" transform="translate(-11.16 -15.49)"/>
      <path class="cls-38" d="M598.35,660.13a13,13,0,0,1,5.19-8.14,13,13,0,0,1,5.2,13L580.34,814.5a13,13,0,0,1-5.19,8.14,13,13,0,0,1-5.2-13Z" transform="translate(-11.16 -15.49)"/>
      <path class="cls-6" d="M454.73,839.93H778.64a14.83,14.83,0,0,0,14.82-14.83H439.9a14.83,14.83,0,0,0,14.83,14.83" transform="translate(-11.16 -15.49)"/>
      <path class="cls-38" d="M439.9,825.1H576.25c0,8.19-7.53,14.83-16.83,14.83H456.73c-9.29,0-16.83-6.64-16.83-14.83" transform="translate(-11.16 -15.49)"/>
      <line class="cls-39" x1="565.09" y1="809.61" x2="681.01" y2="809.61"/>
      <line class="cls-39" x1="710.16" y1="809.61" x2="782.31" y2="809.61"/>
      <path class="cls-17" d="M692,737.31a15,15,0,1,0,15-14.95,15,15,0,0,0-15,14.95" transform="translate(-11.16 -15.49)"/>
      <path class="cls-6" d="M1464.8,825.1H1254.09a13,13,0,0,1-12.81-10.6L1212.88,665a13,13,0,0,1,12.8-15.46H1436.4a13,13,0,0,1,12.8,10.6l28.4,149.51a13,13,0,0,1-12.8,15.46" transform="translate(-11.16 -15.49)"/>
      <path class="cls-38" d="M1449.2,660.13A13,13,0,0,0,1444,652a13,13,0,0,0-5.21,13l28.4,149.51a13,13,0,0,0,5.2,8.14,13,13,0,0,0,5.2-13Z" transform="translate(-11.16 -15.49)"/>
      <path class="cls-6" d="M1592.82,839.93H1268.91a14.83,14.83,0,0,1-14.83-14.83h353.56a14.82,14.82,0,0,1-14.82,14.83" transform="translate(-11.16 -15.49)"/>
      <line class="cls-39" x1="1242.93" y1="809.61" x2="1358.85" y2="809.61"/>
      <line class="cls-39" x1="1387.99" y1="809.61" x2="1460.14" y2="809.61"/>
      <path class="cls-38" d="M1607.64,825.1H1471.3c0,8.19,7.53,14.83,16.83,14.83h102.69c9.29,0,16.82-6.64,16.82-14.83" transform="translate(-11.16 -15.49)"/>
      <path class="cls-17" d="M1350.44,737.31a15,15,0,1,1-15-14.95,15,15,0,0,1,15,14.95" transform="translate(-11.16 -15.49)"/>
      <polygon points="368.26 878.36 317.79 862.66 309.54 939.58 363.24 911.26 368.26 878.36"/>
      <polygon class="cls-40" points="309.54 939.58 258.27 1418.08 285.8 1418.08 363.24 911.26 309.54 939.58"/>
      <polygon class="cls-40" points="1323.5 942.88 1272.58 1418.08 1300.11 1418.08 1376.62 917.34 1323.5 942.88"/>
      <polygon points="1382.57 878.36 1332.09 862.66 1323.5 942.88 1376.62 917.34 1382.57 878.36"/>
      <polygon points="1667.38 862.66 1616.91 878.36 1626.19 939.15 1672.4 909.44 1667.38 862.66"/>
      <polygon class="cls-40" points="1626.19 939.15 1699.37 1418.08 1726.9 1418.08 1672.4 909.44 1626.19 939.15"/>
      <polygon points="622.98 862.66 572.51 878.36 582.16 941.52 628.9 917.89 622.98 862.66"/>
      <polygon class="cls-40" points="582.16 941.52 654.97 1418.08 682.5 1418.08 628.9 917.89 582.16 941.52"/>
      <rect class="cls-17" x="232.89" y="825.5" width="1522.44" height="58.69"/>
      <rect class="cls-41" x="232.89" y="825.5" width="432.39" height="58.69"/>
      <line class="cls-42" x1="665.28" y1="825.5" x2="665.28" y2="884.19"/>
      <line class="cls-39" x1="517.05" y1="884.21" x2="744.71" y2="884.21"/>
      <line class="cls-39" x1="786.23" y1="884.21" x2="910.97" y2="884.21"/>
      <line class="cls-39" x1="937.15" y1="883.71" x2="1452.4" y2="883.71"/>
      <line class="cls-39" x1="1477.73" y1="884.19" x2="1695.38" y2="884.19"/>
      <line class="cls-39" x1="1560.29" y1="824.44" x2="1678.71" y2="824.44"/>
      <line class="cls-39" x1="1292.3" y1="824.44" x2="767.48" y2="824.44"/>
      <line class="cls-39" x1="733.98" y1="824.76" x2="289.82" y2="824.76"/>
      <polyline class="cls-39" points="263.67 825.41 232.89 825.41 232.89 884.19 473.25 884.19"/>
      <path class="cls-43" d="M566.56,841.86s-.14.23-.48.63-.86,1-1.59,1.76a31.56,31.56,0,0,1-7.66,5.4,46.66,46.66,0,0,1-14.7,4.35,117.87,117.87,0,0,1-20.52.8,223.89,223.89,0,0,1-24.69-2.51c-8.8-1.21-18.18-2.69-28.13-2.95-20-.63-41.63,4-63.29,10.82s-42,14.63-61.44,19.37a189.15,189.15,0,0,1-28,4.89,134.09,134.09,0,0,1-24.9,0c-15.21-1.46-26.88-5.76-34.14-9.63s-10.55-7-10.55-7a3.15,3.15,0,0,1,.73.42l2,1.33a70.85,70.85,0,0,0,8.15,4.65c7.3,3.66,18.88,7.73,33.91,9a135.21,135.21,0,0,0,24.59-.16,190.92,190.92,0,0,0,27.71-5c19.25-4.78,39.46-12.58,61.28-19.46s43.71-11.51,64-10.78c10.11.3,19.54,1.85,28.32,3.12a230.26,230.26,0,0,0,24.5,2.69,120.06,120.06,0,0,0,20.3-.54,47.23,47.23,0,0,0,14.51-4c7.39-3.63,9.86-7.46,10.08-7.23" transform="translate(-11.16 -15.49)"/>
      <path class="cls-43" d="M400,842.75c.09.09-1.55,1.31-4.6,3.46a108.7,108.7,0,0,1-13.89,7.89,131.39,131.39,0,0,1-22.72,8.14,138.32,138.32,0,0,1-29.68,4.1c-21.45.66-40.57-4.17-53.07-9.66-6.27-2.81-10.64-6.3-12.8-9.22a15.88,15.88,0,0,1-2.1-3.54c-.31-.87-.45-1.33-.38-1.35s.73,1.82,3.07,4.51,6.6,5.94,12.81,8.56c12.43,5.13,31.31,9.7,52.41,9a142.58,142.58,0,0,0,29.27-3.9,139.1,139.1,0,0,0,22.57-7.72A135.16,135.16,0,0,0,395,845.69a37.61,37.61,0,0,1,5-2.94" transform="translate(-11.16 -15.49)"/>
      <path class="cls-43" d="M757.26,879.94a20.33,20.33,0,0,1,2.36.76,51.39,51.39,0,0,0,7,1.64,46.37,46.37,0,0,0,26.64-3.67l-.08.74a68.45,68.45,0,0,0-33-11.34c-13.52-1.13-29.48,1.39-43,9.84-1.61,1-3.17,2.28-3.33,3.81s1.1,2.92,2.85,3.79a21.64,21.64,0,0,0,5.9,1.82l6.48,1.3c8.72,1.7,17.71,3.4,27,4.61A182.51,182.51,0,0,0,784.89,895a118.67,118.67,0,0,0,14.75-1.25c2.46-.37,4.92-.79,7.35-1.36a40.27,40.27,0,0,0,7.11-2,23.55,23.55,0,0,0,9.22-5.88,8.44,8.44,0,0,0,1.77-9c-1.24-3-4.15-5.33-7.24-7.12A59.94,59.94,0,0,0,807.74,864c-14-4.87-28.5-7-42.28-7.74a196.51,196.51,0,0,0-72.18,9.87A186.56,186.56,0,0,0,649.82,887c-4.64,3.16-8.21,5.66-10.5,7.51l-2.68,2a4.68,4.68,0,0,1-1,.64,5.39,5.39,0,0,1,.83-.76l2.56-2.14c2.21-1.93,5.71-4.51,10.31-7.77A180.65,180.65,0,0,1,692.8,865a196.27,196.27,0,0,1,72.76-10.29c13.93.72,28.61,2.82,42.86,7.75a62.12,62.12,0,0,1,10.44,4.49c3.26,1.9,6.5,4.38,8,7.93a9.92,9.92,0,0,1-2,10.59,25.3,25.3,0,0,1-9.95,6.38,43.12,43.12,0,0,1-7.41,2.12c-2.48.58-5,1-7.49,1.38a121.07,121.07,0,0,1-15,1.26,183.55,183.55,0,0,1-29.07-1.78c-9.38-1.23-18.42-3-27.14-4.7l-6.48-1.32a22.67,22.67,0,0,1-6.38-2,8.37,8.37,0,0,1-2.68-2.06,4.19,4.19,0,0,1-1-3.16c.33-2.34,2.36-3.75,4-4.83,14-8.65,30.29-11.11,44.07-9.87a69,69,0,0,1,33.54,11.84l.62.43-.7.32a46.47,46.47,0,0,1-27.22,3.35c-6.33-1.2-9.29-2.87-9.29-2.87" transform="translate(-11.16 -15.49)"/>
      <path class="cls-43" d="M953.17,843.38a8.51,8.51,0,0,1,1.5,3,19.84,19.84,0,0,1,1,8.81c-.5,7.57-5.76,17.5-14.82,25.62A73.67,73.67,0,0,1,927,891.14a65.77,65.77,0,0,1-13.36,5.71A71,71,0,0,1,904,899a15.14,15.14,0,0,1-3.65.27c-.07-.3,5.11-.93,12.88-3.51A69.86,69.86,0,0,0,926,889.86a76.41,76.41,0,0,0,13.44-10.23c8.87-8,14-17.38,14.87-24.61,1-7.27-1.64-11.56-1.18-11.64" transform="translate(-11.16 -15.49)"/>
      <path class="cls-43" d="M1226.56,896.59c-.17.14-2.14-2.47-7-6a52.82,52.82,0,0,0-23.81-9.47,60.34,60.34,0,0,0-18.13.46c-6.49.91-13.56,2.45-21.24,1.73s-14.82-4.8-21.16-9.15-13.17-8.67-21.25-11.11c-16.08-5.06-33.09-4.21-47.21-.65s-25.86,9.83-34.92,15.6a184.51,184.51,0,0,0-20.25,15.24l-5.17,4.49a11.85,11.85,0,0,1-1.87,1.52,11.11,11.11,0,0,1,1.59-1.74c1.09-1.12,2.75-2.71,4.93-4.72a163.34,163.34,0,0,1,20-15.73A116.79,116.79,0,0,1,1066.3,861c14.36-3.71,31.75-4.66,48.31.55,8.3,2.5,15.45,6.94,21.74,11.39s12.93,8.29,20.24,8.91,14.24-.69,20.8-1.56A61,61,0,0,1,1196,880a51.82,51.82,0,0,1,24.07,10.13,29.81,29.81,0,0,1,6.51,6.48" transform="translate(-11.16 -15.49)"/>
      <path class="cls-43" d="M1470.66,841.55a15.24,15.24,0,0,1-1.67,2,71.7,71.7,0,0,1-5.2,5.46,138,138,0,0,1-22.22,17.41A187.15,187.15,0,0,1,1403,885.26a173.32,173.32,0,0,1-24.86,7,144.46,144.46,0,0,1-27.82,3.16c-19.35.1-37.42-4.12-52.78-9.68a182.87,182.87,0,0,1-38.36-19.18A145.39,145.39,0,0,1,1237.11,849c-2.44-2.22-4-4.2-5.21-5.44a15.24,15.24,0,0,1-1.67-2,14.4,14.4,0,0,1,2,1.78c1.28,1.18,2.94,3.08,5.46,5.22A158.38,158.38,0,0,0,1260,865.61a187.79,187.79,0,0,0,38.22,18.71c15.24,5.43,33.11,9.54,52.11,9.44a145.06,145.06,0,0,0,27.43-3.08,176,176,0,0,0,24.63-6.83,191.53,191.53,0,0,0,38.43-18.38,150.71,150.71,0,0,0,22.47-16.9c2.52-2.14,4.16-4.06,5.44-5.23a14.16,14.16,0,0,1,2-1.79" transform="translate(-11.16 -15.49)"/>
      <path class="cls-43" d="M1435.78,841a5.72,5.72,0,0,1-1.29.92c-.9.55-2.19,1.39-4,2.36a169.19,169.19,0,0,1-15.25,7.61,175.51,175.51,0,0,1-24.09,8.64,118.88,118.88,0,0,1-31.44,4.74c-22.88-.11-42.63-6.68-55.81-12.43a129.7,129.7,0,0,1-15.12-7.83c-1.72-1-3-1.91-3.84-2.48a5.76,5.76,0,0,1-1.25-1c.09-.11,2,1,5.49,2.91a162.69,162.69,0,0,0,15.3,7.31c13.2,5.44,32.8,11.73,55.23,11.84a121.57,121.57,0,0,0,30.93-4.54,189.41,189.41,0,0,0,24-8.25c6.64-2.77,11.88-5.28,15.45-7.1s5.53-2.84,5.61-2.73" transform="translate(-11.16 -15.49)"/>
      <path class="cls-43" d="M1590.58,847a7.49,7.49,0,0,1-1.76,0l-5-.28-3.59-.24-4.29,0c-3.07,0-6.57-.12-10.43.15l-6.06.29-6.53.67c-4.54.35-9.29,1.29-14.32,2a240.61,240.61,0,0,0-31.83,8.37A233.48,233.48,0,0,0,1477,870.9c-4.29,2.45-8.5,4.6-12.12,7l-5.35,3.39-4.72,3.37c-3.07,2.08-5.6,4.2-7.88,6l-3.17,2.54-2.51,2.28-3.53,3.12a6.61,6.61,0,0,1-1.33,1s.32-.46,1.05-1.24l3.28-3.34,2.4-2.4c1-.82,2-1.71,3.09-2.65,2.22-1.9,4.71-4.11,7.75-6.26l4.68-3.48,5.33-3.49c3.61-2.5,7.83-4.72,12.13-7.22a223,223,0,0,1,30-13.17,228.21,228.21,0,0,1,32.17-8.32c5.1-.71,9.9-1.61,14.49-1.9l6.6-.58,6.12-.18c3.9-.21,7.42,0,10.52.09l4.31.16,3.6.39,5,.59a6.36,6.36,0,0,1,1.71.32" transform="translate(-11.16 -15.49)"/>
      <path class="cls-43" d="M1654.45,841.05a48.35,48.35,0,0,1-3.7,9.52c-4.39,8.86-14.09,19.79-28.23,27.87s-28.88,12.33-39.39,15.32l-12.57,3.42a26.88,26.88,0,0,0-4.56,1.42,25.79,25.79,0,0,0,4.75-.8c3-.62,7.4-1.58,12.76-2.92,10.65-2.72,25.59-6.84,40-15.06s24.24-19.6,28.42-28.79a42.29,42.29,0,0,0,3.34-10Z" transform="translate(-11.16 -15.49)"/>
      <path class="cls-43" d="M1253.91,895.41c-.21.14-2.32-3.63-8.37-8.78s-16.34-11.18-30.68-15.11a187.31,187.31,0,0,0-23.94-4.66c-8.73-1.22-18.14-2.18-28-3.68a261.5,261.5,0,0,1-30.4-6.72c-10.37-2.73-21.11-5.66-32.43-6.9-22.73-2.54-44.67,1.69-63.18,7.69a246.71,246.71,0,0,0-25.7,10.17c-7.87,3.56-15.09,7.07-21.64,10.33-13.11,6.54-23.54,12.1-30.73,16l-8.27,4.47-2.17,1.14a3.6,3.6,0,0,1-.77.35s.21-.19.67-.49l2.06-1.28c1.83-1.11,4.55-2.72,8.09-4.73,7.08-4,17.42-9.76,30.46-16.44,6.52-3.34,13.72-6.91,21.59-10.53a241.43,241.43,0,0,1,25.81-10.39c18.65-6.13,40.86-10.48,64-7.9,11.54,1.27,22.37,4.24,32.73,7a264.72,264.72,0,0,0,30.17,6.77c9.77,1.53,19.18,2.54,27.93,3.83a182.74,182.74,0,0,1,24.1,4.9c14.47,4.12,24.89,10.41,30.79,15.77s7.86,9.23,7.86,9.23" transform="translate(-11.16 -15.49)"/>
      <path class="cls-43" d="M911,841.86a11.4,11.4,0,0,1-.22,3.75,40.19,40.19,0,0,1-3,9.9,58.4,58.4,0,0,1-23.4,26.4c-12.67,7.16-25.46,11.3-34.68,14.07-4.64,1.36-8.43,2.33-11.07,2.93a20.7,20.7,0,0,1-4.16.77c0-.12,1.37-.59,3.94-1.38l10.85-3.42c9.05-3,21.68-7.34,34.09-14.36a60.45,60.45,0,0,0,23.2-25.45c3.79-7.86,4-13.27,4.43-13.21" transform="translate(-11.16 -15.49)"/>
      <path class="cls-43" d="M557.57,899.68a25.68,25.68,0,0,1,3.71-3.14c2.45-2,6.15-4.64,10.84-7.82a321.33,321.33,0,0,1,38.82-22.06c15.83-7.66,30.6-13.79,41.33-18.14,5.37-2.17,9.73-3.88,12.77-5a28,28,0,0,1,4.79-1.63,29,29,0,0,1-4.48,2.21l-12.51,5.51c-10.57,4.61-25.23,10.89-41,18.53a389.52,389.52,0,0,0-38.94,21.55c-4.77,3-8.58,5.57-11.17,7.37a27.26,27.26,0,0,1-4.17,2.65" transform="translate(-11.16 -15.49)"/>
      <path class="cls-43" d="M629.3,844.26c0,.19-3.52-.4-9.83,0a76.52,76.52,0,0,0-25.39,6.81c-10.18,4.37-20.92,11.63-33,19.52A171.71,171.71,0,0,1,541.21,882,119.83,119.83,0,0,1,517.45,890c-16.94,3.85-33.62,4.74-48.63,5.15s-28.58.13-39.91.54a222.13,222.13,0,0,0-26.68,2.3c-3.12.51-5.54.93-7.16,1.27a16.14,16.14,0,0,1-2.52.4A13.16,13.16,0,0,1,395,899c1.6-.44,4-1,7.12-1.57a196,196,0,0,1,26.76-2.84c11.38-.56,24.93-.42,39.91-.89s31.51-1.43,48.22-5.23a119.74,119.74,0,0,0,23.37-7.89,174.57,174.57,0,0,0,19.72-11.15c12.08-7.79,23-15,33.42-19.34a74.48,74.48,0,0,1,25.94-6.4,51,51,0,0,1,7.35.22,14.51,14.51,0,0,1,2.52.4" transform="translate(-11.16 -15.49)"/>
      <path class="cls-13" d="M1578.81,840.75c0,.46-63.63.83-142.1.83s-142.11-.37-142.11-.83,63.61-.82,142.11-.82,142.1.37,142.1.82" transform="translate(-11.16 -15.49)"/>
      <path class="cls-15" d="M1941.37,970.45c13-119,23.07-252.8,26.67-298.66.69-8.86,1.22-17.72,1.68-26.59.27-5.39.38-11-1.77-15.91-4-9.08-14.29-13.4-23.9-15.81-11.7-2.92-123.69-4.71-177-5.4a31.18,31.18,0,0,0-31.36,27.39L1695.62,998.7l245.75-28.25" transform="translate(-11.16 -15.49)"/>
      <path class="cls-17" d="M1832.16,1389.62h-33.39V1053.28h-26.33v336.34h-33.39a44,44,0,0,0-44,44h181.06a44,44,0,0,0-44-44" transform="translate(-11.16 -15.49)"/>
      <path class="cls-29" d="M1832.16,1389.62h-33.39V1053.28h-26.33v336.34h-33.39a44,44,0,0,0-44,44h181.06A44,44,0,0,0,1832.16,1389.62Z" transform="translate(-11.16 -15.49)"/>
      <polygon points="1787.61 1037.79 1761.28 1037.79 1761.28 1105.01 1787.61 1083.53 1787.61 1037.79"/>
      <line class="cls-29" x1="1770.3" y1="1374.13" x2="1789.87" y2="1374.13"/>
      <path class="cls-15" d="M1621.23,1067.56H1767a12.1,12.1,0,1,0,0-24.2H1621.23a12.1,12.1,0,1,0,0,24.2" transform="translate(-11.16 -15.49)"/>
      <path class="cls-19" d="M1746.93,1067.56H1767a12.1,12.1,0,1,0,0-24.2h-20.11a12.1,12.1,0,0,0,0,24.2" transform="translate(-11.16 -15.49)"/>
      <path class="cls-30" d="M1747.31,1067.56H1767a12.1,12.1,0,1,0,0-24.2h-19.73a12.1,12.1,0,1,0,0,24.2Z" transform="translate(-11.16 -15.49)"/>
      <path class="cls-15" d="M1763.09,867.24c-4,47.43-9.48,101.65-18.08,148-2.47,13.3-6,27.89-17.11,35.62-4.59,3.19-106.3,20.93-158.12,16.73a7.58,7.58,0,0,1-6.93-6.62c-1.87-15.2-6.31-55.65-3.66-77.58,3.31-27.36,13.27-54.54,31.91-74.84,28.39-30.95,73.06-42,115.05-41.25Z" transform="translate(-11.16 -15.49)"/>
      <path d="M1744.75,891.84c7.48-6,8.37-15.25,8.32-24.6l-46.92,0a213.55,213.55,0,0,0-27.29,1.24c17.93,16.73,41,42.47,65.89,23.33" transform="translate(-11.16 -15.49)"/>
      <path class="cls-30" d="M1568.08,946.63a117.92,117.92,0,0,1,23-38.11c24-26.13,59.55-38.08,95.32-40.71,1.09-.08,43-1.67,44-1.74" transform="translate(-11.16 -15.49)"/>
      <path class="cls-30" d="M1777.8,691.53C1771,801,1753.61,968.89,1745,1015.21c-2.47,13.3-6,27.89-17.11,35.62-4.59,3.19-106.3,20.93-158.12,16.73a7.58,7.58,0,0,1-6.93-6.62c-1.76-14.28-5.78-50.86-4.06-73.42" transform="translate(-11.16 -15.49)"/>
      <path class="cls-30" d="M1964.9,624.39c-2.68-3.3-7.74-3.91-11.69-2.32s-6.93,4.91-9.29,8.46c-10.49,15.75-22.51,216.62-22.33,235.54" transform="translate(-11.16 -15.49)"/>
      <path class="cls-44" d="M1704.59,471.88a81.66,81.66,0,1,0,81.65-81.65,81.65,81.65,0,0,0-81.65,81.65" transform="translate(-11.16 -15.49)"/>
      <path class="cls-44" d="M1852.51,464.78c25.32,32.41,55.29,42.07,73.83,71.18,4.25,6.67,8.21,13.75,9.65,21.53a36.21,36.21,0,0,1-3.58,23.35c-3.83,7.24-11.64,13.51-19.61,11.63,2.78,5.4.62,12.22-3.28,16.88-8.9,10.64-25.22,12.53-38.29,7.86s-38.11-19.83-64.79-48.21c-16.71-17.77-34.77-70.65-25-95.26" transform="translate(-11.16 -15.49)"/>
      <path d="M1870.15,485.05c13.71,8,26.92,16.92,38.79,27.48s22.5,22.68,30,36.63c4.44,8.23,7.51,18.46,2.93,27.31-.74,1.44,1.43,2.71,2.18,1.27,4-7.77,2.88-16.8-.41-24.61s-8.14-14.85-13.26-21.46c-10-12.95-22.29-24-35.5-33.58a276.36,276.36,0,0,0-23.5-15.21,1.26,1.26,0,0,0-1.27,2.17" transform="translate(-11.16 -15.49)"/>
      <path d="M1938.34,559.58a37.83,37.83,0,0,1-12.54,34c-1.22,1.06.56,2.84,1.78,1.78a40.37,40.37,0,0,0,13.19-36.45c-.26-1.6-2.68-.92-2.43.67" transform="translate(-11.16 -15.49)"/>
      <path d="M1861.45,480.11a336.22,336.22,0,0,1,40.43,21.8A219.94,219.94,0,0,1,1937.69,530a170.6,170.6,0,0,1,17,19.3c1,1.27,3.15,0,2.17-1.27a185,185,0,0,0-32.17-32.87,265.74,265.74,0,0,0-38.51-25.43c-7.68-4.21-15.53-8.12-23.49-11.79-1.46-.67-2.74,1.5-1.27,2.18" transform="translate(-11.16 -15.49)"/>
      <line class="cls-45" x1="1846.72" y1="908.94" x2="1808.58" y2="946.71"/>
      <path class="cls-37" d="M1673.37,625.05l-52.9,194.43A24.23,24.23,0,0,0,1636.23,847c15.16,5.33,27.11-4.65,32.23-21.34l15.6-40.45Z" transform="translate(-11.16 -15.49)"/>
      <path class="cls-36" d="M1560.16,704.78s59.52,130,67.94,135.31,44-10.16,28.05-45.72l-79.31-115.86Z" transform="translate(-11.16 -15.49)"/>
      <line class="cls-46" x1="1650.9" y1="785.29" x2="1624.36" y2="748.74"/>
      <polygon class="cls-17" points="1848.81 900.05 1850.93 827.05 1894.06 615.2 1779.02 563.92 1662.21 609.56 1684.46 899.37 1848.81 900.05"/>
      <path class="cls-30" d="M1780.84,783.38c-26.87-8.4-50.35-7-67.42-6.55" transform="translate(-11.16 -15.49)"/>
      <polygon class="cls-36" points="1752.91 682.69 1816.96 580.6 1816.96 498.1 1754.19 498.1 1752.91 682.69"/>
      <polygon class="cls-17" points="1752.94 682.2 1738.83 610.26 1753.76 563.92 1752.94 682.2"/>
      <polygon class="cls-17" points="1752.94 682.2 1772.87 614.2 1819.84 567.39 1818.7 580.02 1752.94 682.2"/>
      <polygon class="cls-17" points="1738.83 610.26 1717.33 616.2 1738.29 573.22 1753.76 563.92 1738.83 610.26"/>
      <line class="cls-47" x1="1750.94" y1="572.65" x2="1743.01" y2="597.28"/>
      <polyline class="cls-47" points="1734.54 580.91 1717.33 616.2 1738.83 610.26 1746.29 646.79"/>
      <polygon class="cls-17" points="1772.87 614.2 1802.86 631.97 1832.84 581.93 1818.86 564.82 1772.87 614.2"/>
      <line class="cls-47" x1="1814.29" y1="612.9" x2="1832.84" y2="581.93"/>
      <polyline class="cls-47" points="1809.77 620.44 1802.86 631.97 1772.87 614.2 1766.54 633.56"/>
      <path d="M1765.35,513.59h62.77v30.78l-33.92,32.12c-7.83,7.43-18.63,6.15-25.34-3l-3.51-4.79Z" transform="translate(-11.16 -15.49)"/>
      <path class="cls-37" d="M1715.28,938.11c16-1.2-15.26-171.88-15.26-171.88l32.4-165.71-59.05,24.53,0,134.77,19,160.59s11,18.6,23,17.7" transform="translate(-11.16 -15.49)"/>
      <path class="cls-35" d="M1350.57,1245.86s-34.1,8.55-33.31,15.93S1336.1,1285,1356,1287s46.18-41.89,66.3-42.55c18.85-.63,14.44-37.55,5.7-43.92s-22.42-7-22.42-7-14.5,38.33-55,52.33" transform="translate(-11.16 -15.49)"/>
      <path class="cls-36" d="M1401.68,1195s-6.26,13.87-15.24,23.82-37.76,25-42.15,28.75c-2.78,2.4,11.89,11.37,24.78,7.55s30.11-18.22,43.13-27.75a38,38,0,0,0,14.89-25.75Z" transform="translate(-11.16 -15.49)"/>
      <polygon class="cls-35" points="1420.12 1221.44 1399.72 1262.11 1392.67 1258.58 1404.74 1228.09 1420.12 1221.44"/>
      <path class="cls-35" d="M1760.19,1020.58c-67.86-7.44-135.09-8.07-203.37-10.12l-.65,42.9a27.19,27.19,0,0,1-6.3,16.88L1435.22,1209l-35.83-11.65q47.55-118.12,95.12-236.24c3.76-9.34,7.92-19.2,16.44-25.18,5.81-4.07,13-5.88,20-7.54,64.66-15.28,240.52-32.18,306.9-38Z" transform="translate(-11.16 -15.49)"/>
      <path class="cls-35" d="M1547.11,1412.93s-26.64,22.93-22.63,29.17,27.22,12.26,45.94,5.13,22.51-58.15,40.19-67.76c16.57-9-3.92-40-14.59-41.81s-23.17,3.82-23.17,3.82,4.23,40.76-25.74,71.45" transform="translate(-11.16 -15.49)"/>
      <path class="cls-36" d="M1570,1344.55s.62,15.2-2.94,28.12-22.57,39.25-24.79,44.59c-1.42,3.39,15.72,4.84,25.53-4.35s18.75-29.79,26.11-44.15a38,38,0,0,0,1.77-29.69Z" transform="translate(-11.16 -15.49)"/>
      <polygon class="cls-35" points="1604.09 1353.28 1604.09 1398.78 1596.2 1398.78 1593.33 1366.12 1604.09 1353.28"/>
      <path class="cls-35" d="M1799.26,1040c-74.58,15.65-174.59,36.6-174.59,36.6,7.55,11.46,12,44.68,12,44.68S1616,1271,1601,1338l-32.83,7.07s-18.72-204.2-19-302.64c0-13.9,1.5-30.32,14.19-37.48l306.82-106.09,10.3,31.65c7.3,50.78-28,98.37-81.2,109.54" transform="translate(-11.16 -15.49)"/>
      <line class="cls-30" x1="1583.76" y1="983.21" x2="1735.51" y2="1005.54"/>
      <path class="cls-30" d="M1526.13,1099l19.12-23a23.72,23.72,0,0,0,5.46-16.49c-.91-16.1-1-48.58,12.63-54.55l18-6.23" transform="translate(-11.16 -15.49)"/>
      <polyline class="cls-30" points="1708.46 590.72 1677.45 659.75 1692.67 665.38 1676.05 680.43 1681.7 765.93"/>
      <polyline class="cls-30" points="1679.66 889.57 1662.19 744.33 1667.3 687.31"/>
      <path class="cls-37" d="M1887.89,930.09l-25.8-87.55,43.13-211.86-53.38-25.79-81.26,171.56s4.85,158.14,39.46,186.35,77.85-32.71,77.85-32.71" transform="translate(-11.16 -15.49)"/>
      <path class="cls-15" d="M1952,867.24c-4,47.43-9.47,101.65-18.07,148-2.47,13.3-6,27.89-17.11,35.62-4.59,3.19-106.3,20.93-158.12,16.73-3.59-.29-11.41-3.56-11.41-12.55,0-18.51-1.83-49.72.82-71.65,3.31-27.36,13.27-54.54,31.91-74.84,28.39-30.95,73.06-42,115-41.25Z" transform="translate(-11.16 -15.49)"/>
      <path d="M1933.67,891.84c7.57-5.86,8.37-15.25,8.32-24.6l-46.92,0c-9-.16-33.86,1.05-49.32,5l44,9.53c12.53,16.79,29.65,21.1,43.93,10" transform="translate(-11.16 -15.49)"/>
      <path class="cls-30" d="M1757,946.63a117.74,117.74,0,0,1,23-38.11c24-26.13,59.54-38.08,95.31-40.71,1.1-.08,43-1.67,44.06-1.74" transform="translate(-11.16 -15.49)"/>
      <path class="cls-30" d="M1966.72,691.53c-6.77,109.44-24.19,277.36-32.79,323.68-2.47,13.3-6,27.89-17.11,35.62-4.59,3.19-106.3,20.93-158.12,16.73-3.59-.29-11.41-2.16-11.41-12.55,0-16.91-1.31-44.93.42-67.49" transform="translate(-11.16 -15.49)"/>
      <path class="cls-30" d="M1780.29,959.78a117.92,117.92,0,0,1,23-38.11c24-26.13,59.55-38.08,95.32-40.71,1.09-.08,43-1.67,44.06-1.73" transform="translate(-11.16 -15.49)"/>
      <path class="cls-30" d="M1779.14,1067.56c-3.59-.29-9-4.1-9-11.26,0-15.2-.88-33.07.84-55.63" transform="translate(-11.16 -15.49)"/>
      <polyline class="cls-30" points="1852.13 594.94 1832.79 665.87 1813.94 670.39 1829.02 686.6 1765.23 760.53"/>
      <path class="cls-37" d="M1868.45,761.38l27.64,107a26.62,26.62,0,0,0,51.81-12.21c-4.35-19.86-10.7-57.65-14.29-76.49q-14.2-74.48-28.39-149Z" transform="translate(-11.16 -15.49)"/>
      <line class="cls-46" x1="1870.26" y1="698.16" x2="1858.24" y2="789.16"/>
      <path class="cls-36" d="M1840.33,792.46,1825,779.65c-3.53-3.15-11.85-5.36-11.85-5.36l1.07,10.33Z" transform="translate(-11.16 -15.49)"/>
      <rect class="cls-17" x="1700.06" y="719.93" width="116.75" height="164.16" transform="translate(-93.23 196.75) rotate(-6.75)"/>
      <polyline class="cls-46" points="1801.99 752.08 1795.6 698.16 1719.77 707.13"/>
      <polyline class="cls-46" points="1732.03 870.98 1814.9 861.17 1811.2 829.96"/>
      <polyline class="cls-46" points="1702.26 709.2 1679.66 711.88 1698.96 874.89"/>
      <path class="cls-36" d="M1821.33,827.08l19,1.14c19,14.68,47.16,38.16,64.89,54.34,0,0,45.56-7.73-.7-62.87,0,0-48.66-21-79.51-34a11.92,11.92,0,0,0-5.75-.87l-49.9,5a4.81,4.81,0,0,0,.23,9.59l.83.26s2,1.24,6,8.9a9.91,9.91,0,0,0,5.3,4.73c9,3.43,27.57,10,35.61,13a13.62,13.62,0,0,0,4,.85" transform="translate(-11.16 -15.49)"/>
      <path class="cls-46" d="M1915,833.65a147.56,147.56,0,0,0-10.49-14s-51.26-22-79.51-34" transform="translate(-11.16 -15.49)"/>
      <path class="cls-46" d="M1911.67,880.47c6.89-3.1,16.39-10.36,12.81-26.31" transform="translate(-11.16 -15.49)"/>
      <path class="cls-46" d="M1781.69,813.27c9,3.43,27.57,10,35.61,13a13.92,13.92,0,0,0,4,.84l19,1.14c4.79,3.7,10.15,7.95,15.79,12.51" transform="translate(-11.16 -15.49)"/>
      <path class="cls-36" d="M1579.86,655l-10.32-46.35a2.43,2.43,0,0,0-3.41-1.76c-2.72,1.27-5.37,4.44-4.92,7.42l4.82,42.16L1540.41,668l9.11,26.27a16.12,16.12,0,0,0,15.23,10.83l19.77-32Z" transform="translate(-11.16 -15.49)"/>
      <path class="cls-36" d="M1561.49,645.2l-21.55,11.09a7.32,7.32,0,0,0-3.53,8.76L1540,676a6.05,6.05,0,0,0,7.66,4l18-6a6.24,6.24,0,0,0,4.13-7l-3.08-19.06a3.63,3.63,0,0,0-5.23-2.72" transform="translate(-11.16 -15.49)"/>
      <path class="cls-36" d="M1582.51,691.53l9.39-22.32,3-25.46c.27-2.31-2.2-4.35-4.28-3.52a6.35,6.35,0,0,0-3.78,4.3l-3.77,13.87s-21.06,4.05-12.21,28.77" transform="translate(-11.16 -15.49)"/>
      <path class="cls-36" d="M1800.32,555.15c14.89-10.09,21.9-24.22,26.41-40.88,4.24-15.6,16.71-27.49,20.88-43.15,4.69-17.59-2.42-36.45-13.19-51.13-17.94-24.45-54.49-31.57-80.37-15.53-18.08,11.2-29.65,31.37-32.86,52.4-1.35,8.86-1.34,17.87-1.08,26.84.75,24.94,4,51.15,18.67,71.32a27.73,27.73,0,0,0,5.67,6.07c3.73,2.77,8.42,3.9,13,4.46a63.58,63.58,0,0,0,42.85-10.4" transform="translate(-11.16 -15.49)"/>
      <path d="M1748.49,535.39a27.86,27.86,0,0,0,9.11-.42,20.21,20.21,0,0,0,10.89-7.39,1.26,1.26,0,0,0-.45-1.72,1.28,1.28,0,0,0-1.72.45,17.59,17.59,0,0,1-10,6.38,26.88,26.88,0,0,1-7.86.19c-1.62-.12-1.61,2.4,0,2.51" transform="translate(-11.16 -15.49)"/>
      <path class="cls-44" d="M1854.25,481.76c13.07-37.75-21.68-69.09-30-72.59,1.89-7.71.21-14.41-4-21.33-4-6.47-11.05-11.92-19.32-12.45s-17.07,5.25-17,12.63a38.93,38.93,0,0,0-20.46-22.22c-9.88-4.39-22.49-4.25-31.55,1.38a30.59,30.59,0,0,0-12.63,16.5c-2.17,6.51-2.44,13.4-2,20.17,1.26,19.22,8.52,38.55,23.07,52.81,10,9.77,22.9,16.82,36.42,22.24,23.84,9.57,51.34,14.4,76.26,7.34" transform="translate(-11.16 -15.49)"/>
      <path d="M1730.34,388.24a110.25,110.25,0,0,0,13.12,50.91,107.71,107.71,0,0,0,8,12.7c1,1.29,3.13,0,2.17-1.27A108,108,0,0,1,1734,402.89a105.69,105.69,0,0,1-1.14-14.65,1.26,1.26,0,0,0-2.52,0" transform="translate(-11.16 -15.49)"/>
      <path d="M1745.42,414.12a205.57,205.57,0,0,0,19.9,48.13,1.26,1.26,0,0,0,2.17-1.27,202.91,202.91,0,0,1-19.64-47.53,1.26,1.26,0,0,0-2.43.67" transform="translate(-11.16 -15.49)"/>
      <path d="M1765.93,443a89.93,89.93,0,0,0,7.14,15.74,1.26,1.26,0,0,0,2.17-1.27,86,86,0,0,1-6.88-15.14c-.52-1.52-2.95-.87-2.43.67" transform="translate(-11.16 -15.49)"/>
      <path class="cls-36" d="M1829.82,477.75c4.38-5.25,13.53-5.39,18.07-.27a18.16,18.16,0,0,1,3.57,7.06,38.19,38.19,0,0,1,.84,18.12c-1.18,6.06-4.16,12.13-9.48,15.26s-13.24,2.16-16.39-3.15" transform="translate(-11.16 -15.49)"/>
      <path class="cls-37" d="M1836.5,515.42c.83-1,2,.55,2,.55a17.79,17.79,0,0,0-2.49,7.75c-.26,7.29,11.24,7.43,11.33.67a9.17,9.17,0,0,0-3.08-7.45,18.06,18.06,0,0,0,1.53-1.41c1.64,2.17,3.3,4.49,3.61,7.21,1.31,11.7-13.45,10.29-15.27,4.76-1.72-5.2.06-9.16,2.36-12.08" transform="translate(-11.16 -15.49)"/>
      <path d="M1834.47,503.29c-.28-1,.27-2.3.68-3.31-.05.13.09-.19.1-.22s.13-.29.21-.44.29-.57.45-.85a14.06,14.06,0,0,1,1-1.56,15.23,15.23,0,0,1,5.26-4.5,1.69,1.69,0,1,0-1.71-2.91,18.4,18.4,0,0,0-8.61,9.76,7.86,7.86,0,0,0-.62,4.93c.61,2.08,3.86,1.2,3.26-.9" transform="translate(-11.16 -15.49)"/>
      <path d="M1833.7,501.41l-.07-.05.77,1c0,.1,0,1-.22,1.06.09,0,.2-.22.26-.29s.29-.29.44-.43.33-.31.51-.46l.23-.2c.11-.08.16-.12,0,0a13.25,13.25,0,0,1,2.3-1.36s.31-.15.14-.07.13-.05.16-.06c.21-.09.43-.17.65-.24.41-.13.83-.25,1.25-.34l.6-.12c.14,0,.33,0,.08,0l.31,0q.69-.06,1.38-.06a1.69,1.69,0,0,0,1.68-1.68,1.71,1.71,0,0,0-1.68-1.69,14.42,14.42,0,0,0-7,1.73c-1.74.93-6.57,4.19-3.56,6.24a1.7,1.7,0,0,0,2.31-.61,1.74,1.74,0,0,0-.61-2.31" transform="translate(-11.16 -15.49)"/>
      <path d="M1745.5,491.73a35.34,35.34,0,0,1-4.41,16.76c-.58,1-1.75,2.26-1.49,3.53.23,1.11,1.59,1.74,2.46,2.28a37.72,37.72,0,0,0,8.26,3.74c1.54.5,2.21-1.93.67-2.42a34.66,34.66,0,0,1-7.47-3.38c-.26-.15-.51-.31-.77-.48l-.37-.24c-.36-.34-.46-.37-.3-.08,0,.46.37-.31.41-.38.19-.31.38-.61.56-.93a37.55,37.55,0,0,0,1.75-3.47,38.57,38.57,0,0,0,3.22-14.93,1.26,1.26,0,0,0-2.52,0" transform="translate(-11.16 -15.49)"/>
      <path d="M1718.35,478.78a63.85,63.85,0,0,1,9.84-3.1,56.54,56.54,0,0,1,9.74-1.37,3.18,3.18,0,1,0,0-6.35,67,67,0,0,0-21.27,4.7,3.26,3.26,0,0,0-2.21,3.91c.48,1.48,2.25,2.88,3.9,2.21" transform="translate(-11.16 -15.49)"/>
      <path d="M1760.37,474.34a46.14,46.14,0,0,1,21.82,4.68,3.25,3.25,0,0,0,4.35-1.14,3.2,3.2,0,0,0-1.14-4.34,53,53,0,0,0-25-5.55,3.18,3.18,0,1,0,0,6.35" transform="translate(-11.16 -15.49)"/>
      <path d="M1729.08,497.39H1729a3.69,3.69,0,0,1-3.69-3.69v-3.93a3.69,3.69,0,0,1,3.69-3.69h.06a3.69,3.69,0,0,1,3.69,3.69v3.93a3.69,3.69,0,0,1-3.69,3.69" transform="translate(-11.16 -15.49)"/>
      <path d="M1767.28,497.39h-.06a3.7,3.7,0,0,1-3.7-3.69v-3.93a3.7,3.7,0,0,1,3.7-3.69h.06a3.69,3.69,0,0,1,3.69,3.69v3.93a3.69,3.69,0,0,1-3.69,3.69" transform="translate(-11.16 -15.49)"/>
    </g>
  </g>
</svg>
